<?xml version="1.0" encoding="UTF-8" standalone="no"?>
<!DOCTYPE svg PUBLIC "-//W3C//DTD SVG 1.1//EN"
 "http://www.w3.org/Graphics/SVG/1.1/DTD/svg11.dtd">
<!-- Generated by graphviz version 2.40.1 (20161225.0304)
 -->
<!-- Title: %3 Pages: 1 -->
<svg width="1036pt" height="720pt"
 viewBox="0.00 0.00 1035.75 720.00" xmlns="http://www.w3.org/2000/svg" xmlns:xlink="http://www.w3.org/1999/xlink">
<g id="graph0" class="graph" transform="scale(.6704 .6704) rotate(0) translate(36 1038)">
<title>%3</title>
<polygon fill="#ffffff" stroke="transparent" points="-36,36 -36,-1038 1509,-1038 1509,36 -36,36"/>
<g id="clust1" class="cluster">
<title>cluster_a</title>
</g>
<g id="clust2" class="cluster">
<title>cluster_b</title>
</g>
<g id="clust3" class="cluster">
<title>cluster_c</title>
</g>
<!-- yah -->
<g id="node1" class="node">
<title>yah</title>
<polygon fill="none" stroke="#000000" points="530,-417 320,-417 320,-197 536,-197 536,-411 530,-417"/>
<polyline fill="none" stroke="#000000" points="530,-417 530,-411 "/>
<polyline fill="none" stroke="#000000" points="536,-411 530,-411 "/>
<text text-anchor="start" x="328" y="-385.8" font-family="Helvetica,sans-Serif" font-size="14.00" fill="#000000">this is way, way, </text>
<text text-anchor="start" x="328" y="-371.8" font-family="Helvetica,sans-Serif" font-size="14.00" fill="#000000">way out of </text>
<text text-anchor="start" x="328" y="-357.8" font-family="Helvetica,sans-Serif" font-size="14.00" fill="#000000">my comfort </text>
<text text-anchor="start" x="328" y="-343.8" font-family="Helvetica,sans-Serif" font-size="14.00" fill="#000000">league </text>
<text text-anchor="start" x="328" y="-329.8" font-family="Helvetica,sans-Serif" font-size="14.00" fill="#000000">zone </text>
<text text-anchor="start" x="328" y="-315.8" font-family="Helvetica,sans-Serif" font-size="14.00" fill="#000000">way out of </text>
<text text-anchor="start" x="328" y="-301.8" font-family="Helvetica,sans-Serif" font-size="14.00" fill="#000000">my comfort </text>
<text text-anchor="start" x="328" y="-287.8" font-family="Helvetica,sans-Serif" font-size="14.00" fill="#000000">league </text>
<text text-anchor="start" x="328" y="-273.8" font-family="Helvetica,sans-Serif" font-size="14.00" fill="#000000">zone </text>
<text text-anchor="start" x="328" y="-259.8" font-family="Helvetica,sans-Serif" font-size="14.00" fill="#000000">way out of </text>
<text text-anchor="start" x="328" y="-245.8" font-family="Helvetica,sans-Serif" font-size="14.00" fill="#000000">my comfort </text>
<text text-anchor="start" x="328" y="-231.8" font-family="Helvetica,sans-Serif" font-size="14.00" fill="#000000">league </text>
<text text-anchor="start" x="328" y="-217.8" font-family="Helvetica,sans-Serif" font-size="14.00" fill="#000000"> zone </text>
<text text-anchor="middle" x="428" y="-203.8" font-family="Helvetica,sans-Serif" font-size="14.00" fill="#000000"> </text>
</g>
<!-- setMultipleCount -->
<g id="node2" class="node">
<title>setMultipleCount</title>
<polygon fill="none" stroke="#000000" points="1172,-361 884,-361 884,-253 1172,-253 1172,-361"/>
<text text-anchor="middle" x="1028" y="-302.8" font-family="Helvetica,sans-Serif" font-size="14.00" fill="#000000">setMultipleCount</text>
</g>
<!-- originalPage -->
<g id="node6" class="node">
<title>originalPage</title>
<ellipse fill="none" stroke="#000000" cx="1056" cy="-70" rx="144" ry="54"/>
<text text-anchor="middle" x="1056" y="-65.8" font-family="Helvetica,sans-Serif" font-size="14.00" fill="#000000">originalPage</text>
</g>
<!-- setMultipleCount&#45;&gt;originalPage -->
<g id="edge6" class="edge">
<title>setMultipleCount&#45;&gt;originalPage</title>
<path fill="none" stroke="#000000" d="M1034.3887,-252.9245C1038.5491,-217.7092 1043.998,-171.5879 1048.3836,-134.4676"/>
<polygon fill="#000000" stroke="#000000" points="1051.8928,-134.5946 1049.5904,-124.253 1044.9412,-133.7733 1051.8928,-134.5946"/>
</g>
<!-- setPageToParent -->
<g id="node3" class="node">
<title>setPageToParent</title>
<polygon fill="none" stroke="#000000" points="304,-986 16,-986 16,-878 304,-878 304,-986"/>
<text text-anchor="middle" x="160" y="-927.8" font-family="Helvetica,sans-Serif" font-size="14.00" fill="#000000">setPageToParent</text>
</g>
<!-- isMultipleInstance -->
<g id="node10" class="node">
<title>isMultipleInstance</title>
<polygon fill="#e5e5e5" stroke="#000000" points="719,-805 627.1505,-751 719,-697 810.8495,-751 719,-805"/>
<text text-anchor="middle" x="719" y="-746.8" font-family="Helvetica,sans-Serif" font-size="14.00" fill="#000000">isMultipleInstance</text>
</g>
<!-- setPageToParent&#45;&gt;isMultipleInstance -->
<g id="edge13" class="edge">
<title>setPageToParent&#45;&gt;isMultipleInstance</title>
<path fill="none" stroke="#000000" d="M304.2549,-907.3758C397.6688,-888.4416 520.5459,-857.8355 623,-813 638.9538,-806.0184 655.253,-796.5358 669.7853,-787.0879"/>
<polygon fill="#000000" stroke="#000000" points="671.7299,-789.998 678.1216,-781.5483 667.8557,-784.1679 671.7299,-789.998"/>
</g>
<!-- page -->
<g id="node4" class="node">
<title>page</title>
<ellipse fill="none" stroke="#000000" cx="1313" cy="-932" rx="144" ry="54"/>
<text text-anchor="middle" x="1313" y="-927.8" font-family="Helvetica,sans-Serif" font-size="14.00" fill="#000000">page</text>
</g>
<!-- hasSubpages -->
<g id="node9" class="node">
<title>hasSubpages</title>
<polygon fill="#e5e5e5" stroke="#000000" points="1313,-805 1239.6996,-751 1313,-697 1386.3004,-751 1313,-805"/>
<text text-anchor="middle" x="1313" y="-746.8" font-family="Helvetica,sans-Serif" font-size="14.00" fill="#000000">hasSubpages</text>
</g>
<!-- page&#45;&gt;hasSubpages -->
<g id="edge1" class="edge">
<title>page&#45;&gt;hasSubpages</title>
<path fill="none" stroke="#000000" d="M1313,-877.694C1313,-858.0964 1313,-835.7877 1313,-815.4089"/>
<polygon fill="#000000" stroke="#000000" points="1316.5001,-815.2676 1313,-805.2676 1309.5001,-815.2677 1316.5001,-815.2676"/>
</g>
<!-- subpage -->
<g id="node5" class="node">
<title>subpage</title>
<ellipse fill="none" stroke="#000000" cx="1313" cy="-557" rx="144" ry="54"/>
<text text-anchor="middle" x="1313" y="-552.8" font-family="Helvetica,sans-Serif" font-size="14.00" fill="#000000">subpage</text>
</g>
<!-- endPage -->
<g id="node7" class="node">
<title>endPage</title>
<ellipse fill="none" stroke="#000000" cx="696" cy="-70" rx="144" ry="54"/>
<text text-anchor="middle" x="696" y="-65.8" font-family="Helvetica,sans-Serif" font-size="14.00" fill="#000000">endPage</text>
</g>
<!-- nextStep -->
<g id="node8" class="node">
<title>nextStep</title>
<ellipse fill="none" stroke="#000000" cx="160" cy="-70" rx="144" ry="54"/>
<text text-anchor="middle" x="160" y="-65.8" font-family="Helvetica,sans-Serif" font-size="14.00" fill="#000000">nextStep</text>
</g>
<!-- hasSubpages&#45;&gt;subpage -->
<g id="edge2" class="edge">
<title>hasSubpages&#45;&gt;subpage</title>
<path fill="none" stroke="#000000" d="M1313,-696.9602C1313,-673.5141 1313,-645.8715 1313,-621.3721"/>
<polygon fill="#000000" stroke="#000000" points="1316.5001,-621.0861 1313,-611.0861 1309.5001,-621.0862 1316.5001,-621.0861"/>
<text text-anchor="middle" x="1322.3311" y="-649.8" font-family="Times,serif" font-size="14.00" fill="#000000">yes</text>
</g>
<!-- hasSubpages&#45;&gt;isMultipleInstance -->
<g id="edge3" class="edge">
<title>hasSubpages&#45;&gt;isMultipleInstance</title>
<path fill="none" stroke="#000000" d="M1239.3933,-751C1134.2117,-751 940.4918,-751 821.3813,-751"/>
<polygon fill="#000000" stroke="#000000" points="821.1608,-747.5001 811.1608,-751 821.1607,-754.5001 821.1608,-747.5001"/>
<text text-anchor="middle" x="1025.2623" y="-756.8" font-family="Times,serif" font-size="14.00" fill="#000000">no</text>
</g>
<!-- isMultipleCountTooBig -->
<g id="node11" class="node">
<title>isMultipleCountTooBig</title>
<polygon fill="#e5e5e5" stroke="#000000" points="985,-611 873.3005,-557 985,-503 1096.6995,-557 985,-611"/>
<text text-anchor="middle" x="985" y="-552.8" font-family="Helvetica,sans-Serif" font-size="14.00" fill="#000000">isMultipleCountTooBig</text>
</g>
<!-- isMultipleInstance&#45;&gt;isMultipleCountTooBig -->
<g id="edge4" class="edge">
<title>isMultipleInstance&#45;&gt;isMultipleCountTooBig</title>
<path fill="none" stroke="#000000" d="M760.2706,-720.9004C806.4399,-687.228 881.3629,-632.585 931.8734,-595.7465"/>
<polygon fill="#000000" stroke="#000000" points="934.0559,-598.4867 940.073,-589.7663 929.9311,-592.8311 934.0559,-598.4867"/>
<text text-anchor="middle" x="869.3311" y="-649.8" font-family="Times,serif" font-size="14.00" fill="#000000">yes</text>
</g>
<!-- hasParent -->
<g id="node12" class="node">
<title>hasParent</title>
<polygon fill="#e5e5e5" stroke="#000000" points="672,-611 614.1991,-557 672,-503 729.8009,-557 672,-611"/>
<text text-anchor="middle" x="672" y="-552.8" font-family="Helvetica,sans-Serif" font-size="14.00" fill="#000000">hasParent</text>
</g>
<!-- isMultipleInstance&#45;&gt;hasParent -->
<g id="edge7" class="edge">
<title>isMultipleInstance&#45;&gt;hasParent</title>
<path fill="none" stroke="#000000" d="M707.5025,-703.5423C700.7443,-675.6467 692.1758,-640.2787 685.1498,-611.2778"/>
<polygon fill="#000000" stroke="#000000" points="688.4907,-610.2027 682.7344,-601.308 681.6875,-611.851 688.4907,-610.2027"/>
<text text-anchor="middle" x="704" y="-649.8" font-family="Times,serif" font-size="14.00" fill="#000000">no</text>
</g>
<!-- isMultipleCountTooBig&#45;&gt;setMultipleCount -->
<g id="edge5" class="edge">
<title>isMultipleCountTooBig&#45;&gt;setMultipleCount</title>
<path fill="none" stroke="#000000" d="M993.5983,-507.0096C1000.3145,-467.9621 1009.6961,-413.4181 1016.966,-371.1511"/>
<polygon fill="#000000" stroke="#000000" points="1020.4255,-371.6853 1018.6713,-361.2366 1013.5268,-370.4986 1020.4255,-371.6853"/>
<text text-anchor="middle" x="1009" y="-455.8" font-family="Times,serif" font-size="14.00" fill="#000000">no</text>
</g>
<!-- isMultipleCountTooBig&#45;&gt;hasParent -->
<g id="edge8" class="edge">
<title>isMultipleCountTooBig&#45;&gt;hasParent</title>
<path fill="none" stroke="#000000" d="M873.3879,-557C828.8073,-557 778.9181,-557 739.9479,-557"/>
<polygon fill="#000000" stroke="#000000" points="739.7738,-553.5001 729.7738,-557 739.7738,-560.5001 739.7738,-553.5001"/>
<text text-anchor="middle" x="801.5253" y="-562.8" font-family="Times,serif" font-size="14.00" fill="#000000">yes</text>
</g>
<!-- hasParent&#45;&gt;endPage -->
<g id="edge9" class="edge">
<title>hasParent&#45;&gt;endPage</title>
<path fill="none" stroke="#000000" d="M674.5457,-505.3435C678.9616,-415.7371 688.0293,-231.7389 692.8402,-134.1171"/>
<polygon fill="#000000" stroke="#000000" points="696.3381,-134.2455 693.3346,-124.0853 689.3465,-133.9009 696.3381,-134.2455"/>
<text text-anchor="middle" x="697" y="-302.8" font-family="Times,serif" font-size="14.00" fill="#000000">no</text>
</g>
<!-- lastStep -->
<g id="node13" class="node">
<title>lastStep</title>
<polygon fill="#e5e5e5" stroke="#000000" points="239,-611 185,-557 239,-503 293,-557 239,-611"/>
<text text-anchor="middle" x="239" y="-552.8" font-family="Helvetica,sans-Serif" font-size="14.00" fill="#000000">lastStep</text>
</g>
<!-- hasParent&#45;&gt;lastStep -->
<g id="edge10" class="edge">
<title>hasParent&#45;&gt;lastStep</title>
<path fill="none" stroke="#000000" d="M614.0293,-557C533.3466,-557 387.6639,-557 303.5905,-557"/>
<polygon fill="#000000" stroke="#000000" points="303.4013,-553.5001 293.4013,-557 303.4013,-560.5001 303.4013,-553.5001"/>
<text text-anchor="middle" x="453.6749" y="-562.8" font-family="Times,serif" font-size="14.00" fill="#000000">yes</text>
</g>
<!-- lastStep&#45;&gt;yah -->
<g id="edge14" class="edge">
<title>lastStep&#45;&gt;yah</title>
<path fill="none" stroke="#000000" d="M262.3647,-526.0944C281.6468,-500.5889 310.3075,-462.6779 338.3908,-425.5307"/>
<polygon fill="#000000" stroke="#000000" points="341.5097,-427.2089 344.7484,-417.1212 335.9258,-422.9875 341.5097,-427.2089"/>
</g>
<!-- lastStep&#45;&gt;setPageToParent -->
<g id="edge12" class="edge">
<title>lastStep&#45;&gt;setPageToParent</title>
<path fill="none" stroke="#000000" d="M240.6482,-609.557C240.9686,-667.7781 236.991,-763.7641 212,-842 209.1473,-850.9307 205.3108,-859.9432 201.0073,-868.6366"/>
<polygon fill="#000000" stroke="#000000" points="197.8743,-867.0754 196.3752,-877.5636 204.0877,-870.2994 197.8743,-867.0754"/>
<text text-anchor="middle" x="247.3311" y="-746.8" font-family="Times,serif" font-size="14.00" fill="#000000">yes</text>
</g>
<!-- lastStep&#45;&gt;nextStep -->
<g id="edge11" class="edge">
<title>lastStep&#45;&gt;nextStep</title>
<path fill="none" stroke="#000000" d="M231.4251,-510.3044C217.1998,-422.6112 186.4743,-233.2024 170.353,-133.8216"/>
<polygon fill="#000000" stroke="#000000" points="173.8011,-133.2192 168.7449,-123.9087 166.8914,-134.3402 173.8011,-133.2192"/>
<text text-anchor="middle" x="224" y="-302.8" font-family="Times,serif" font-size="14.00" fill="#000000">no</text>
</g>
</g>
</svg>
